PathFileType	4	(X/Y/Z)	./resultDataOpenSim/trcMotMarkerGrf/sub06/qtm-14-04.trc
DataRate	CameraRate	NumFrames	NumMarkers	Units	OrigDataRate	OrigDataStartFrame	OrigNumFrames
250.000000	250.000000	6	24	m	250.000000	339	542
Frame#	Time	L.Toe.Tip			R.Toe.Tip			L.Ankle.Lat			R.Ankle.Lat			L.Ankle.Med			R.Ankle.Med			L.Heel			R.Heel			L.Knee.Lat			R.Knee.Lat			L.Knee.Med			R.Knee.Med			L.Thigh.Upper			R.Thigh.Upper			L.ASIS			R.ASIS			V.Sacral			L.Acromium			R.Acromium			C7			L.Elbow			R.Elbow			L.Wrist.Lat			R.Wrist.Lat
		X1	Y1	Z1	X2	Y2	Z2	X3	Y3	Z3	X4	Y4	Z4	X5	Y5	Z5	X6	Y6	Z6	X7	Y7	Z7	X8	Y8	Z8	X9	Y9	Z9	X10	Y10	Z10	X11	Y11	Z11	X12	Y12	Z12	X13	Y13	Z13	X14	Y14	Z14	X15	Y15	Z15	X16	Y16	Z16	X17	Y17	Z17	X18	Y18	Z18	X19	Y19	Z19	X20	Y20	Z20	X21	Y21	Z21	X22	Y22	Z22	X23	Y23	Z23	X24	Y24	Z24

339	1.352	0.44505942	0.11884612	-0.013259864	0.86360257	0.034851114	0.095734306	0.44730472	0.24898604	-0.052628637	0.7287799	0.062100148	0.12520531	0.48141526	0.25621534	0.024590634	0.74470207	0.079755367	0.036622487	0.41031303	0.30904227	0.0016502608	0.6698225	0.040927876	0.070717619	0.77720625	0.39782384	-0.14465324	0.84707969	0.43281986	0.14675806	0.79684206	0.39152173	-0.017362333	0.79833954	0.42519953	0.027617266	0.65619098	0.7743565	-0.11913281	0.74090342	0.79436032	0.2158771	0.73814503	0.82807685	-0.094359221	0.80810124	0.84840594	0.14196607	0.59376727	0.91308551	0.073719276	0.74075454	1.3245871	-0.13343298	0.76958324	1.2832441	0.22576014	0.68027229	1.3542985	0.057580258	0.74445139	0.99561437	-0.19186988	0.65039191	0.98569603	0.28805715	0.96017697	0.87687861	-0.17079048	0.79304758	0.79280286	0.34086199
340	1.356	0.4586179	0.12001364	-0.014590352	0.86354627	0.034855766	0.095715012	0.45965434	0.2502271	-0.05362852	0.72866793	0.062243046	0.12530139	0.49381778	0.2575498	0.023487957	0.74456818	0.079973268	0.036749936	0.42216952	0.30989753	0.00084376516	0.66972346	0.041094413	0.0708419	0.78840508	0.40203232	-0.14527645	0.84729075	0.43322458	0.14651389	0.80783986	0.39589295	-0.017722722	0.79776732	0.42559132	0.027501499	0.66271729	0.77722325	-0.11970392	0.74584433	0.79613817	0.21544478	0.74435372	0.83089598	-0.09438869	0.81316273	0.85065217	0.14202831	0.59910713	0.91531757	0.073145245	0.74577632	1.3266446	-0.13391992	0.77478423	1.2863542	0.22531298	0.68524259	1.3566183	0.057110554	0.74537959	0.99820668	-0.19349574	0.65849082	0.98767496	0.28863237	0.95957931	0.87470745	-0.17441681	0.80557419	0.79755064	0.33944631
341	1.36	0.47231417	0.12098247	-0.01602517	0.8635016	0.034856907	0.095696206	0.4720176	0.25125706	-0.054654139	0.72850154	0.06240204	0.12542857	0.50621239	0.25861214	0.022403483	0.7444519	0.080203916	0.036879956	0.43401415	0.31047558	2.7593403e-06	0.66964909	0.041279925	0.07094874	0.79957047	0.40624865	-0.14581179	0.84745697	0.43362071	0.14626792	0.81855644	0.40030988	-0.017966089	0.79718142	0.42600043	0.027431396	0.66927393	0.78008148	-0.12024026	0.75098374	0.79788298	0.21495436	0.75046289	0.83367414	-0.094552333	0.81821586	0.85281122	0.14201827	0.60445808	0.91752102	0.072552917	0.75077944	1.3286814	-0.1344038	0.77997673	1.2894422	0.22486208	0.69021063	1.3589025	0.056627077	0.74631973	1.0007848	-0.19529948	0.66662187	0.9896566	0.28917127	0.95885393	0.87258701	-0.17802315	0.81800964	0.80239301	0.33796466
342	1.364	0.48621059	0.1217596	-0.017639414	0.86346876	0.034856623	0.095679819	0.48440582	0.25208329	-0.055705545	0.72834721	0.06255777	0.12556154	0.51867287	0.25939992	0.021318515	0.74437839	0.080435169	0.036987416	0.44585374	0.31072859	-0.00086635835	0.66961187	0.041485227	0.071025796	0.81067813	0.41047541	-0.14627314	0.84758425	0.4340133	0.14603847	0.82907519	0.40475316	-0.018131724	0.79657135	0.42644247	0.027421812	0.67586354	0.78294735	-0.12082591	0.75631128	0.79959608	0.2144157	0.75649596	0.83642789	-0.094769163	0.82326546	0.85487687	0.14195165	0.60981326	0.91969017	0.071954311	0.75573832	1.3307038	-0.13487802	0.78515716	1.2924975	0.22440452	0.69517794	1.3611464	0.056134089	0.74758149	1.0032757	-0.19669806	0.67465593	0.99161898	0.28964559	0.95800221	0.87051597	-0.18160913	0.83037803	0.8073405	0.3364316
343	1.368	0.50033901	0.12235656	-0.019454664	0.86344198	0.034857035	0.095667552	0.49682398	0.25271263	-0.056773235	0.7282701	0.062701418	0.1256794	0.53120736	0.25997076	0.020230331	0.74434858	0.080668998	0.037071908	0.45764153	0.31066521	-0.0017231516	0.66960605	0.041710308	0.07108472	0.82170518	0.41470513	-0.14666913	0.84767701	0.4344037	0.14583665	0.8395456	0.40920776	-0.018290952	0.79579377	0.42694635	0.027430544	0.68245895	0.78582501	-0.12150086	0.76157141	0.80123211	0.21386272	0.76253207	0.83919381	-0.094958287	0.8283139	0.85684672	0.14184591	0.61516176	0.921821	0.071359459	0.76065918	1.3326956	-0.1353427	0.79031643	1.2955126	0.22393622	0.70014589	1.3633483	0.055638571	0.74921852	1.005698	-0.19741427	0.68252818	0.99356326	0.29006892	0.95702075	0.86850271	-0.18517726	0.84271518	0.81240986	0.33486681
344	1.372	0.51467656	0.12278136	-0.021433756	0.86341344	0.034858281	0.095660399	0.50926758	0.25314806	-0.057854789	0.72827932	0.062841449	0.12578406	0.54375371	0.26040677	0.019155296	0.74433648	0.080922448	0.037161603	0.46933271	0.31032551	-0.0025267833	0.66960259	0.041957054	0.071168692	0.83262368	0.41892268	-0.14700995	0.84773845	0.43479126	0.14566665	0.85002895	0.41365968	-0.018481126	0.79472601	0.42753545	0.027380592	0.68903668	0.78871023	-0.12223122	0.76642665	0.80272977	0.21333177	0.76866439	0.8419992	-0.095062072	0.83335225	0.85871372	0.14171058	0.62050112	0.92390863	0.070768778	0.76555763	1.33464	-0.13580004	0.79545277	1.2984824	0.22345687	0.70511473	1.365504	0.055145851	0.75110346	1.008115	-0.1976211	0.69024787	0.99550072	0.29048106	0.95590649	0.86656337	-0.18872327	0.85504253	0.81759751	0.33328047
